<?xml version="1.0" encoding="utf-8"?>
<!-- Generator: Adobe Illustrator 19.1.0, SVG Export Plug-In . SVG Version: 6.00 Build 0)  -->
<svg version="1.1" id="Layer_1" xmlns="http://www.w3.org/2000/svg" xmlns:xlink="http://www.w3.org/1999/xlink" x="0px" y="0px"
	 viewBox="-289 365 32 64" style="enable-background:new -289 365 32 64;" xml:space="preserve">
<style type="text/css">
	.st0{fill:none;stroke:#0c2c63;stroke-width:1.2;stroke-miterlimit:10;}
	.st1{fill:#2188C9;}
	.st1-1{fill:#ffffff;}
	.st2{fill:none;stroke:#FFFFFF;stroke-width:1.2;stroke-miterlimit:10;}
</style>
<g>
	<path class="st0" d="M-286.2,377.4v-4.2c0-1.1,0.9-1.9,1.9-1.9h23c1.1,0,1.9,0.9,1.9,1.9v14.9c0,1.1-0.9,1.9-1.9,1.9h-20.1"/>
	<path class="st1" d="M-270.9,375.5l-2.3,4.5h-1.2l-0.5-3.6l1.2,0.8l-2.1-1.6h2l0.2,2.1c0,0.3,0,0.5,0.1,0.8
		c0.1-0.2,0.2-0.5,0.4-0.8l1-2.1H-270.9z M-270.4,375.5l-0.9,4.5h1.2l0.9-4.5H-270.4z M-267.1,377.3c-0.3-0.2-0.6-0.3-0.6-0.5
		c0-0.2,0.2-0.3,0.5-0.3c0.4,0,0.7,0.1,0.7,0.2l0.1,0.1l0.4-1l-0.1-0.1c-0.3-0.2-0.6-0.2-1.1-0.2c-1.1,0-1.8,0.6-1.8,1.5
		c0,0.6,0.5,1,1,1.2c0.4,0.2,0.5,0.3,0.5,0.5c0,0.3-0.3,0.4-0.5,0.4c-0.3,0-0.7-0.1-0.9-0.3l-0.1-0.1l-0.4,1l0.1,0.1
		c0.3,0.2,0.8,0.3,1.3,0.3c1.1,0,1.9-0.6,1.9-1.6C-266.2,378-266.5,377.6-267.1,377.3z M-262.2,380h-1.2l-0.1-1.1h-1l-0.5,1.1h-1.3
		l2.2-4.5h1.4L-262.2,380z M-263.6,377.9l-0.1-0.8c0-0.1,0-0.2,0-0.3c0,0.1-0.1,0.2-0.1,0.3l-0.3,0.7H-263.6z"/>
	<path class="st1" d="M-274.5,385.1h-2.3c-0.4,0-0.8,0.3-0.8,0.8s0.3,0.8,0.8,0.8h2.3c0.4,0,0.8-0.3,0.8-0.8
		S-274.1,385.1-274.5,385.1z M-268.8,385.1h-2.3c-0.4,0-0.8,0.3-0.8,0.8s0.3,0.8,0.8,0.8h2.3c0.4,0,0.8-0.3,0.8-0.8
		S-268.3,385.1-268.8,385.1z M-263,385.1h-2.3c-0.4,0-0.8,0.3-0.8,0.8s0.3,0.8,0.8,0.8h2.3c0.4,0,0.8-0.3,0.8-0.8
		S-262.6,385.1-263,385.1z"/>
	<path class="st1" d="M-284.3,381.3c-0.5-0.6-1.7-0.7-2.3-0.8c-0.1,0-0.1-0.1,0-0.2l6.1-2l2.4,4.1c0,0.1,0,0.2-0.1,0.1
		c-0.8-0.4-2.2-0.2-3-0.1c-0.3,0-0.8,0.2-1,0.4c-3.6,3.4-2.3,6.5-1.6,7.8c0,0.1-0.1,0.1-0.1,0.1
		C-288.6,385.2-284.3,381.3-284.3,381.3z"/>
</g>
<g>
	<path class="st2" d="M-286.2,409.4v-4.2c0-1.1,0.9-1.9,1.9-1.9h23c1.1,0,1.9,0.9,1.9,1.9v14.9c0,1.1-0.9,1.9-1.9,1.9h-20.1"/>
	<path class="st1-1" d="M-270.9,407.5l-2.3,4.5h-1.2l-0.5-3.6l1.2,0.8l-2.1-1.6h2l0.2,2.1c0,0.3,0,0.5,0.1,0.8
		c0.1-0.2,0.2-0.5,0.4-0.8l1-2.1H-270.9z M-270.4,407.5l-0.9,4.5h1.2l0.9-4.5H-270.4z M-267.1,409.3c-0.3-0.2-0.6-0.3-0.6-0.5
		c0-0.2,0.2-0.3,0.5-0.3c0.4,0,0.7,0.1,0.7,0.2l0.1,0.1l0.4-1l-0.1-0.1c-0.3-0.2-0.6-0.2-1.1-0.2c-1.1,0-1.8,0.6-1.8,1.5
		c0,0.6,0.5,1,1,1.2c0.4,0.2,0.5,0.3,0.5,0.5c0,0.3-0.3,0.4-0.5,0.4c-0.3,0-0.7-0.1-0.9-0.3l-0.1-0.1l-0.4,1l0.1,0.1
		c0.3,0.2,0.8,0.3,1.3,0.3c1.1,0,1.9-0.6,1.9-1.6C-266.2,410-266.5,409.6-267.1,409.3z M-262.2,412h-1.2l-0.1-1.1h-1l-0.5,1.1h-1.3
		l2.2-4.5h1.4L-262.2,412z M-263.6,409.9l-0.1-0.8c0-0.1,0-0.2,0-0.3c0,0.1-0.1,0.2-0.1,0.3l-0.3,0.7H-263.6z"/>
	<path class="st1-1" d="M-274.5,417.1h-2.3c-0.4,0-0.8,0.3-0.8,0.8s0.3,0.8,0.8,0.8h2.3c0.4,0,0.8-0.3,0.8-0.8
		S-274.1,417.1-274.5,417.1z M-268.8,417.1h-2.3c-0.4,0-0.8,0.3-0.8,0.8s0.3,0.8,0.8,0.8h2.3c0.4,0,0.8-0.3,0.8-0.8
		S-268.3,417.1-268.8,417.1z M-263,417.1h-2.3c-0.4,0-0.8,0.3-0.8,0.8s0.3,0.8,0.8,0.8h2.3c0.4,0,0.8-0.3,0.8-0.8
		S-262.6,417.1-263,417.1z"/>
	<path class="st1" d="M-284.3,413.3c-0.5-0.6-1.7-0.7-2.3-0.8c-0.1,0-0.1-0.1,0-0.2l6.1-2l2.4,4.1c0,0.1,0,0.2-0.1,0.1
		c-0.8-0.4-2.2-0.2-3-0.1c-0.3,0-0.8,0.2-1,0.4c-3.6,3.4-2.3,6.5-1.6,7.8c0,0.1-0.1,0.1-0.1,0.1
		C-288.6,417.2-284.3,413.3-284.3,413.3z"/>
</g>
</svg>
