<?xml version="1.0" encoding="utf-8"?>
<!-- Generator: Adobe Illustrator 19.1.0, SVG Export Plug-In . SVG Version: 6.00 Build 0)  -->
<svg version="1.1" id="Layer_1" xmlns="http://www.w3.org/2000/svg" xmlns:xlink="http://www.w3.org/1999/xlink" x="0px" y="0px"
	 viewBox="-289 365 32 64" style="enable-background:new -289 365 32 64;" xml:space="preserve">
<style type="text/css">
	.st0{fill:none;stroke:#0c2c63;stroke-width:1.2;stroke-miterlimit:10;}
	.st1{fill:none;stroke:#2188C9;stroke-width:1.2;stroke-linecap:round;stroke-miterlimit:10;}
	.st2{fill:none;stroke:#FFFFFF;stroke-width:1.2;stroke-miterlimit:10;}
</style>
<g>
	<path class="st0" d="M-264,393.8H-282c-0.7,0-1.2-0.5-1.2-1.2v-18.7l5.6-5.6h13.7c0.7,0,1.2,0.5,1.2,1.2v23.1
		C-262.8,393.2-263.3,393.8-264,393.8z M-283.2,373.6h5.6v-5.4"/>
	<path class="st1" d="M-279.6,380.2h13.1 M-279.6,383.6h13.1 M-279.6,386.9h13.1"/>
</g>
<g>
	<path class="st2" d="M-264,425.8H-282c-0.7,0-1.2-0.5-1.2-1.2v-18.7l5.6-5.6h13.7c0.7,0,1.2,0.5,1.2,1.2v23.1
		C-262.8,425.2-263.3,425.8-264,425.8z M-283.2,405.6h5.6v-5.4"/>
	<path class="st1" d="M-279.6,412.2h13.1 M-279.6,415.6h13.1 M-279.6,418.9h13.1"/>
</g>
</svg>
