<?xml version="1.0" encoding="utf-8"?>
<!-- Generator: Adobe Illustrator 19.1.0, SVG Export Plug-In . SVG Version: 6.00 Build 0)  -->
<svg version="1.1" id="Layer_1" xmlns="http://www.w3.org/2000/svg" xmlns:xlink="http://www.w3.org/1999/xlink" x="0px" y="0px"
	 viewBox="0 0 32 64" style="enable-background:new 0 0 32 64;" xml:space="preserve">
<style type="text/css">
	.st0{fill:#1E4485;}
	.st1{fill:#51C1E9;}
	.st2{fill:#FFFFFF;}
</style>
<g>
	<path class="st0" d="M28.582,26.803H9.024c-1.065,0-1.93-0.846-1.93-1.886v-8.93c0-1.04,0.866-1.886,1.93-1.886h19.558
		c1.065,0,1.932,0.846,1.932,1.886v1.865h-0.895c-0.473,0-0.857,0.375-0.857,0.837v3.525c0,0.462,0.384,0.838,0.857,0.838h0.895
		v1.864C30.514,25.957,29.647,26.803,28.582,26.803z M12.816,25.754h15.766c0.473,0,0.858-0.375,0.858-0.838v-0.824
		c-0.982-0.088-1.753-0.897-1.753-1.878v-3.525c0-0.982,0.771-1.79,1.753-1.878v-0.824c0-0.462-0.385-0.838-0.858-0.838H12.816
		V25.754z M9.024,15.148c-0.473,0-0.857,0.376-0.857,0.838v8.93c0,0.463,0.384,0.838,0.857,0.838h2.719V15.148H9.024z"/>
	<path class="st1" d="M6.363,23.981c-0.284,0-0.566-0.064-0.829-0.192c-0.459-0.222-0.804-0.611-0.971-1.095l-2.97-8.566
		c-0.167-0.484-0.138-1.003,0.083-1.464c0.222-0.461,0.609-0.807,1.09-0.976l18.238-6.383C22,4.956,23.088,5.487,23.432,6.484
		l0.621,1.788l-0.834,0.293c-0.214,0.075-0.386,0.229-0.484,0.433c-0.099,0.204-0.112,0.435-0.038,0.65l1.173,3.382
		c0.021,0.061,0.046,0.143,0.073,0.235c0.044,0.147,0.147,0.492,0.211,0.581l-0.716,0.781c-0.243-0.206-0.365-0.567-0.51-1.057
		c-0.023-0.075-0.042-0.141-0.059-0.19l-1.173-3.382c-0.167-0.483-0.138-1.004,0.083-1.464c0.196-0.408,0.521-0.725,0.926-0.91
		l-0.274-0.791c-0.153-0.442-0.631-0.677-1.079-0.524L3.115,12.693c-0.214,0.075-0.385,0.228-0.484,0.434
		c-0.099,0.204-0.112,0.435-0.038,0.65l2.97,8.567c0.154,0.445,0.64,0.677,1.079,0.525l0.348,1.005
		C6.786,23.946,6.574,23.981,6.363,23.981z"/>
	<path class="st1" d="M19.565,19.496l-0.755-2.218l-0.756,2.218H15.61l1.977,1.559l-0.755,2.523l1.978-1.559l1.978,1.559
		l-0.756-2.523l1.978-1.559H19.565z"/>
</g>
<g>
	<path class="st1" d="M6.363,55.981c-0.284,0-0.566-0.064-0.829-0.192c-0.459-0.222-0.804-0.611-0.971-1.095l-2.97-8.566
		c-0.167-0.484-0.138-1.003,0.083-1.464c0.222-0.461,0.609-0.807,1.09-0.976l18.238-6.383c0.995-0.349,2.083,0.182,2.428,1.179
		l0.621,1.788l-0.834,0.293c-0.214,0.075-0.386,0.229-0.484,0.433c-0.099,0.204-0.112,0.435-0.038,0.65l1.173,3.382
		c0.021,0.061,0.046,0.143,0.073,0.235c0.044,0.147,0.147,0.492,0.211,0.581l-0.716,0.781c-0.243-0.206-0.365-0.567-0.51-1.057
		c-0.023-0.075-0.042-0.141-0.059-0.19l-1.173-3.382c-0.167-0.483-0.138-1.004,0.083-1.464c0.196-0.408,0.521-0.725,0.926-0.91
		l-0.274-0.791c-0.153-0.442-0.631-0.677-1.079-0.524L3.115,44.693c-0.214,0.075-0.385,0.228-0.484,0.434
		c-0.099,0.204-0.112,0.435-0.038,0.65l2.97,8.567c0.154,0.445,0.64,0.677,1.079,0.525l0.348,1.005
		C6.786,55.946,6.574,55.981,6.363,55.981z"/>
	<path class="st2" d="M19.565,51.496l-0.755-2.218l-0.756,2.218H15.61l1.977,1.559l-0.755,2.523l1.978-1.559l1.978,1.559
		l-0.756-2.523l1.978-1.559H19.565z"/>
	<path class="st2" d="M28.582,58.803H9.024c-1.065,0-1.93-0.846-1.93-1.887v-8.93c0-1.04,0.866-1.886,1.93-1.886h19.558
		c1.065,0,1.932,0.846,1.932,1.886v1.865h-0.895c-0.473,0-0.857,0.375-0.857,0.837v3.525c0,0.462,0.384,0.838,0.857,0.838h0.895
		v1.864C30.514,57.957,29.647,58.803,28.582,58.803z M12.816,57.754h15.766c0.473,0,0.858-0.375,0.858-0.838v-0.824
		c-0.982-0.088-1.753-0.897-1.753-1.878v-3.525c0-0.982,0.771-1.79,1.753-1.878v-0.824c0-0.462-0.385-0.838-0.858-0.838H12.816
		V57.754z M9.024,47.148c-0.473,0-0.857,0.376-0.857,0.838v8.93c0,0.463,0.384,0.838,0.857,0.838h2.719V47.148H9.024z"/>
</g>
</svg>
