<?xml version="1.0" encoding="utf-8"?>
<!-- Generator: Adobe Illustrator 19.1.0, SVG Export Plug-In . SVG Version: 6.00 Build 0)  -->
<svg version="1.1" id="Layer_1" xmlns="http://www.w3.org/2000/svg" xmlns:xlink="http://www.w3.org/1999/xlink" x="0px" y="0px"
	 viewBox="-289 365 32 64" style="enable-background:new -289 365 32 64;" xml:space="preserve">
<style type="text/css">
	.st0{display:none;fill:none;stroke:#2188C9;stroke-width:1.2;stroke-miterlimit:10;}
	.st1{fill:none;stroke:#2188C9;stroke-width:1.2;stroke-miterlimit:10;}
	.st2{fill:none;stroke:#0c2c63;stroke-width:1.2;stroke-miterlimit:10;}
	.st3{fill:none;stroke:#FFFFFF;stroke-width:1.2;stroke-miterlimit:10;}
</style>
<g>
	<path class="st0" d="M-276.4,387.7c0,0,1.9,3.1,3.8-1.4c0,0-0.6,2.9,1.1,2.8c0,0,1.7,0.5,2.1-2.8c0,0-0.6,2.3,0.9,2.3
		c0,0,2,0.1,2.1-2.3"/>
	<path class="st1" d="M-286.2,380.9l6-4.6c0.3-0.3,0.7-0.4,1.1-0.4h0.7"/>
	<path class="st2" d="M-278.3,382.5v-7.6c0-1.2,1-2.1,2.1-2.1h14.2c1.2,0,2.1,1,2.1,2.1v9c0,1.2-1,2.1-2.1,2.1h-13.5 M-278.3,377.1
		h18.5"/>
	<path class="st1" d="M-284.8,388.4c1.5-0.6,5.6-0.2,5.6-0.2c2.3-0.1,4.5-3.1,4.5-3.1l2.6-1.5c0.4-0.2,0.6-0.5,0.8-0.9
		c0.8-2.8-1-2.2-1-2.2l-9,3.4"/>
</g>
<g>
	<path class="st0" d="M-276.4,419.7c0,0,1.9,3.1,3.8-1.4c0,0-0.6,2.9,1.1,2.8c0,0,1.7,0.5,2.1-2.8c0,0-0.6,2.3,0.9,2.3
		c0,0,2,0.1,2.1-2.3"/>
	<path class="st1" d="M-286.2,412.9l6-4.6c0.3-0.3,0.7-0.4,1.1-0.4h0.7"/>
	<path class="st3" d="M-278.3,414.5v-7.6c0-1.2,1-2.1,2.1-2.1h14.2c1.2,0,2.1,1,2.1,2.1v9c0,1.2-1,2.1-2.1,2.1h-13.5 M-278.3,409.1
		h18.5"/>
	<path class="st1" d="M-284.8,420.4c1.5-0.6,5.6-0.2,5.6-0.2c2.3-0.1,4.5-3.1,4.5-3.1l2.6-1.5c0.4-0.2,0.6-0.5,0.8-0.9
		c0.8-2.8-1-2.2-1-2.2l-9,3.4"/>
</g>
</svg>
