<?xml version="1.0" encoding="utf-8"?>
<!-- Generator: Adobe Illustrator 19.1.0, SVG Export Plug-In . SVG Version: 6.00 Build 0)  -->
<svg version="1.1" id="Layer_1" xmlns="http://www.w3.org/2000/svg" xmlns:xlink="http://www.w3.org/1999/xlink" x="0px" y="0px"
	 viewBox="-289 381 32 32" style="enable-background:new -289 381 32 32;" xml:space="preserve">
<style type="text/css">
	.st0{fill:#ffffff;stroke:#ffffff;stroke-width:0.5;stroke-miterlimit:10;}
	.st1{fill:none;stroke:#ffffff;stroke-width:1.2;stroke-miterlimit:10;}
	.st2{fill:none;stroke:#ffffff;stroke-width:1.2;stroke-miterlimit:10;}
</style>
<g>
	<path class="st0" d="M-268.5,393.3c0-0.3,0-0.6,0-0.9c0.2,0,0.4,0,0.6,0c0,0.3,0,0.6,0,0.9c0.2,0,0.5,0.1,0.7,0.1s0.3,0.1,0.5,0.2
		v0.1c-0.1,0.2-0.1,0.4-0.2,0.6c-0.2-0.1-0.5-0.2-0.7-0.3c-0.3-0.1-0.6-0.1-0.9,0c-0.3,0.1-0.5,0.3-0.6,0.6c-0.1,0.3,0,0.6,0.3,0.8
		c0.2,0.1,0.5,0.3,0.7,0.4c0.3,0.1,0.7,0.3,0.9,0.5c0.5,0.4,0.7,0.9,0.7,1.5c-0.1,0.6-0.4,1-1,1.3c-0.2,0.1-0.3,0.1-0.5,0.2
		c0,0.3,0,0.6,0,1c-0.2,0-0.4,0-0.6,0c0-0.3,0-0.6,0-0.9c-0.2,0-0.4-0.1-0.6-0.1c-0.3-0.1-0.5-0.1-0.8-0.3c-0.1,0-0.1-0.1,0-0.1
		c0.1-0.2,0.1-0.4,0.2-0.5c0.1,0,0.1,0.1,0.1,0.1c0.4,0.2,0.8,0.3,1.3,0.3c0.2,0,0.4,0,0.5-0.1c0.7-0.3,0.8-1.1,0.2-1.6
		c-0.2-0.2-0.5-0.3-0.8-0.4c-0.4-0.1-0.7-0.3-1-0.6c-0.7-0.6-0.6-1.7,0.1-2.2c0.2-0.2,0.5-0.3,0.8-0.4
		C-268.5,393.3-268.5,393.3-268.5,393.3z"/>
	<path class="st1" d="M-267.8,403.1v3.7c0,1.5-1.3,2.8-2.8,2.8h-10.3c-1.5,0-2.8-1.3-2.8-2.8v-19.6c0-1.5,1.3-2.8,2.8-2.8h10.3
		c1.5,0,2.8,1.3,2.8,2.8v1.9 M-283.8,388.1h15.9 M-283.8,404h15.9 M-278.2,406.8h4.7"/>
	<path class="st2" d="M-272.8,402.5L-272.8,402.5c-0.5,0-0.8-0.1-0.9-0.4c0-0.1-0.1-0.3,0.1-0.6l0.7-0.9c0.1-0.1,0.1-0.2,0.1-0.2
		c-1.1-1.1-1.7-2.6-1.7-4.2c0-3.4,2.7-6.1,6.1-6.1c3.4,0,6.1,2.7,6.1,6.1c0,3.4-2.7,6.1-6.1,6.1c-0.7,0-1.3-0.1-1.9-0.3
		c0,0,0,0-0.1,0c-0.2,0.1-0.5,0.2-0.7,0.3c-0.1,0-0.2,0-0.2,0.1h-0.1C-271.8,402.4-272.3,402.5-272.8,402.5z"/>
</g>
</svg>
