<?xml version="1.0" encoding="utf-8"?>
<!-- Generator: Adobe Illustrator 19.1.0, SVG Export Plug-In . SVG Version: 6.00 Build 0)  -->
<svg version="1.1" id="Layer_1" xmlns="http://www.w3.org/2000/svg" xmlns:xlink="http://www.w3.org/1999/xlink" x="0px" y="0px"
	 viewBox="0 -65 160 320" style="enable-background:new 0 -65 160 320;" xml:space="preserve">
<style type="text/css">
	.st0{fill:#0c2c63;}
	.st1{fill:#2188C9;}
	.st2{fill:#434A54;}
</style>
<g>
	<path class="st0" d="M123.6,52.5h1.6c2.7,0,4.9-2.2,4.9-4.8V25.1c0-2.7-2.2-4.8-4.9-4.8h-19.4v-42.2c2.8-0.7,4.8-3.2,4.8-6.2
		c0-3.6-2.9-6.5-6.5-6.5s-6.5,2.9-6.5,6.5c0,3,2.1,5.5,4.8,6.2v42.2H34.8c-2.7,0-4.8,2.2-4.8,4.8v22.6c0,2.7,2.2,4.8,4.8,4.8h1.6
		 M39.5,52.5h80.8 M100.9-28.3c0-1.8,1.4-3.2,3.2-3.2s3.2,1.4,3.2,3.2c0,1.8-1.4,3.2-3.2,3.2C102.3-25.1,100.9-26.5,100.9-28.3z
		 M126.8,47.6c0,0.9-0.7,1.6-1.6,1.6H34.8c-0.9,0-1.6-0.7-1.6-1.6V25c0-0.9,0.7-1.6,1.6-1.6h90.5c0.9,0,1.6,0.7,1.6,1.6L126.8,47.6
		L126.8,47.6z"/>
	<path class="st1" d="M114.3-21.4c3.8-3.8,3.8-9.9,0-13.7l-2.3,2.3c2.5,2.5,2.5,6.6,0,9.1L114.3-21.4z"/>
	<path class="st1" d="M116.6-19.1l2.3,2.3c3.1-3.1,4.7-7.1,4.7-11.4s-1.7-8.4-4.7-11.4l-2.3,2.3c2.4,2.4,3.8,5.7,3.8,9.1
		C120.3-24.8,118.9-21.6,116.6-19.1z"/>
	<path class="st1" d="M121.1-14.6l2.3,2.3c8.8-8.8,8.8-23.2,0-32l-2.3,2.3C128.6-34.4,128.6-22.1,121.1-14.6z"/>
	<path class="st1" d="M94.1-21.4l2.3-2.3c-2.5-2.5-2.5-6.6,0-9.1l-2.3-2.3C90.3-31.4,90.3-25.2,94.1-21.4z"/>
	<path class="st1" d="M89.6-16.9l2.3-2.3c-5-5-5-13.2,0-18.3l-2.3-2.3C83.3-33.4,83.3-23.2,89.6-16.9z"/>
	<path class="st1" d="M87.3-14.6c-7.6-7.6-7.6-19.9,0-27.4L85-44.3c-8.8,8.8-8.8,23.2,0,32L87.3-14.6z"/>
	<path class="st1" d="M37.9,44.4h48.5V28.3H37.9V44.4z M41.1,31.5h42v9.7h-42V31.5z"/>
	<rect x="104.1" y="34.7" class="st1" width="3.2" height="3.2"/>
	<rect x="110.6" y="34.7" class="st1" width="3.2" height="3.2"/>
	<rect x="97.8" y="34.7" class="st1" width="3.2" height="3.2"/>
</g>
<g>
	<path class="st2" d="M123.6,212.5h1.6c2.7,0,4.9-2.2,4.9-4.8v-22.6c0-2.7-2.2-4.8-4.9-4.8h-19.4v-42.4c2.8-0.7,4.8-3.2,4.8-6.2
		c0-3.6-2.9-6.5-6.5-6.5s-6.5,2.9-6.5,6.5c0,3,2.1,5.5,4.8,6.2v42.2H34.8c-2.7,0-4.8,2.2-4.8,4.8v22.6c0,2.7,2.2,4.8,4.8,4.8h1.6
		 M39.5,212.5h80.8 M100.9,131.7c0-1.8,1.4-3.2,3.2-3.2s3.2,1.4,3.2,3.2c0,1.8-1.4,3.2-3.2,3.2S100.9,133.5,100.9,131.7z
		 M126.8,207.6c0,0.9-0.7,1.6-1.6,1.6H34.8c-0.9,0-1.6-0.7-1.6-1.6V185c0-0.9,0.7-1.6,1.6-1.6h90.5c0.9,0,1.6,0.7,1.6,1.6
		L126.8,207.6L126.8,207.6z"/>
	<path class="st2" d="M114.3,138.6c3.8-3.8,3.8-9.9,0-13.7l-2.3,2.3c2.5,2.5,2.5,6.6,0,9.1L114.3,138.6z"/>
	<path class="st2" d="M116.6,140.9l2.3,2.3c3.1-3.1,4.7-7.1,4.7-11.4c0-4.3-1.7-8.4-4.7-11.4l-2.3,2.3c2.4,2.4,3.8,5.7,3.8,9.1
		C120.3,135.2,118.9,138.4,116.6,140.9z"/>
	<path class="st2" d="M121.1,145.4l2.3,2.3c8.8-8.8,8.8-23.2,0-32l-2.3,2.3C128.6,125.6,128.6,137.9,121.1,145.4z"/>
	<path class="st2" d="M94.1,138.6l2.3-2.3c-2.5-2.5-2.5-6.6,0-9.1l-2.3-2.3C90.3,128.6,90.3,134.8,94.1,138.6z"/>
	<path class="st2" d="M89.6,143.1l2.3-2.3c-5-5-5-13.2,0-18.3l-2.3-2.3C83.3,126.6,83.3,136.8,89.6,143.1z"/>
	<path class="st2" d="M87.3,145.4c-7.6-7.6-7.6-19.9,0-27.4l-2.3-2.3c-8.8,8.8-8.8,23.2,0,32L87.3,145.4z"/>
	<path class="st2" d="M37.9,204.4h48.5v-16.1H37.9V204.4z M41.1,191.5h42v9.7h-42V191.5z"/>
	<rect x="104.1" y="194.7" class="st2" width="3.2" height="3.2"/>
	<rect x="110.6" y="194.7" class="st2" width="3.2" height="3.2"/>
	<rect x="97.8" y="194.7" class="st2" width="3.2" height="3.2"/>
</g>
</svg>
