<?xml version="1.0" encoding="utf-8"?>
<!-- Generator: Adobe Illustrator 19.1.0, SVG Export Plug-In . SVG Version: 6.00 Build 0)  -->
<svg version="1.1" id="Layer_1" xmlns="http://www.w3.org/2000/svg" xmlns:xlink="http://www.w3.org/1999/xlink" x="0px" y="0px"
	 viewBox="-225 237 160 320" style="enable-background:new -225 237 160 320;" xml:space="preserve">
<style type="text/css">
	.st0{display:none;}
	.st1{display:inline;}
	.st2{fill:#2188C9;}
	.st3{display:inline;fill:#0c2c63;}
	.st4{display:inline;fill:none;stroke:#2188C9;stroke-width:3;stroke-miterlimit:10;}
	.st5{fill:none;stroke:#2188C9;stroke-width:3.6;stroke-miterlimit:10;}
	.st6{fill:none;stroke:#0c2c63;stroke-width:3.6;stroke-miterlimit:10;}
	.st7{fill:none;stroke:#2188C9;stroke-width:3;stroke-miterlimit:10;}
	.st8{fill:none;stroke:#2188C9;stroke-width:3.6;stroke-linecap:round;stroke-miterlimit:10;}
	.st9{fill:none;stroke:#434A54;stroke-width:3.6;stroke-miterlimit:10;}
	.st10{fill:none;stroke:#434A54;stroke-width:3;stroke-miterlimit:10;}
	.st11{fill:none;stroke:#434A54;stroke-width:3.6;stroke-linecap:round;stroke-miterlimit:10;}
</style>
<g class="st0">
	<g transform="translate(0,-952.36218)" class="st1">
		<g>
			<path class="st2" d="M-62.3,1171.4c-0.1,0-0.1,0-0.2,0c-1.3,0.1-2.2,1.1-2.2,2.4c0.1,1.3,1.1,2.2,2.4,2.2c13.8,0,25,11.2,25,25
				c0,1.3,1,2.3,2.2,2.3c1.3,0,2.3-1,2.3-2.2c0,0,0,0,0-0.1C-32.7,1184.6-46,1171.4-62.3,1171.4z"/>
			<path class="st2" d="M-62.3,1180.5c-0.1,0-0.1,0-0.2,0c-1.3,0.1-2.2,1.1-2.2,2.4c0.1,1.3,1.1,2.2,2.4,2.2c9,0,15.9,6.9,15.9,15.9
				c0,1.3,1,2.3,2.2,2.3c1.3,0,2.3-1,2.3-2.2c0,0,0,0,0-0.1C-41.8,1189.5-50.9,1180.5-62.3,1180.5z"/>
		</g>
	</g>
	<path class="st3" d="M-50.4,287.8L-75,263.3l7-7l1.8,1.8c0.9,0.9,2.3,0.9,3.2,0l10.2-10.2c0.9-0.9,0.9-2.3,0-3.2l0,0l-6.8-6.8
		c-0.5-0.5-1.2-0.7-1.8-0.6c-0.5,0.1-1,0.3-1.3,0.6L-72.9,248c-0.9,0.9-0.9,2.3,0,3.2l0,0l1.8,1.8l-7,7l-23.5-23.3
		c-0.5-0.5-1.2-0.7-1.8-0.6c-0.5,0.1-1,0.3-1.3,0.6c-7.6,7.6-10.9,17.9-10.9,27.8c0,8.8,3.2,17.3,9.2,24.2l-22.4,26.6
		c-0.8,1-0.7,2.4,0.3,3.2c0.4,0.3,0.9,0.5,1.4,0.5h50c1.3,0,2.3-1,2.3-2.3v-14.9c8.8-0.7,17.6-4,24.3-10.8
		C-49.5,290.2-49.5,288.7-50.4,287.8L-50.4,287.8z M-61.1,242.7l3.6,3.6l-7,7l-3.6-3.6L-61.1,242.7z M-79.3,314.5h-42.9l18.9-22.5
		c6.8,6.3,15.2,9.7,23.9,10C-79.3,301.9-79.3,314.5-79.3,314.5z M-78.2,297.4c-8.5,0-16.5-3.3-23.1-9.9c-6.5-6.5-9.9-14.6-9.9-23.1
		c0-8.2,2.6-16.3,8.1-22.8l47.5,47.5C-61.9,294.7-70.1,297.4-78.2,297.4z"/>
	<path class="st4" d="M-99.8,253.9c0,0-8.5,13.3,3.5,28"/>
</g>
<g>
	<path class="st5" d="M-172.4,340.2l-19.3,24.9c-1,1.3-0.1,3.2,1.6,3.2h38.6c2.1,0,2.8-2.8,1-3.7c-4.4-2.4-17.2-5.9-19-10.3"/>
	<path class="st6" d="M-173.2,286.8c-6.8,7.3-10.8,17.2-10.3,28c0.9,20,17.3,36.2,37.3,36.9c11,0.4,21-3.9,28.3-11
		c0.8-0.8,0.8-2.1,0-2.9l-52.4-51.1C-171.1,285.9-172.4,286-173.2,286.8z"/>
	<path class="st6" d="M-133.1,305.6l-5.2-5.3c-0.8-0.8-0.8-2.1,0-2.8l9.3-9c0.8-0.8,2.1-0.8,2.8,0l5.2,5.3c0.8,0.8,0.8,2.1,0,2.8
		l-9.3,9C-131.1,306.4-132.3,306.4-133.1,305.6z"/>
	<line class="st6" x1="-135.8" y1="303.1" x2="-144.6" y2="311.7"/>
	<path class="st7" d="M-172,303.3c0,0-8,13.6,4.5,27.9"/>
	<path class="st8" d="M-129.8,265.7c17.7,0,32,14.3,32,32"/>
	<path class="st8" d="M-129.6,275.6c12.7,0,23,10.3,23,23"/>
</g>
<g>
	<path class="st9" d="M-172.4,500.2l-19.3,24.9c-1,1.3-0.1,3.2,1.6,3.2h38.6c2.1,0,2.8-2.8,1-3.7c-4.4-2.4-17.2-5.9-19-10.3"/>
	<path class="st9" d="M-173.2,446.8c-6.8,7.3-10.8,17.2-10.3,28c0.9,20,17.3,36.2,37.3,36.9c11,0.4,21-3.9,28.3-11
		c0.8-0.8,0.8-2.1,0-2.9l-52.4-51.1C-171.1,445.9-172.4,446-173.2,446.8z"/>
	<path class="st9" d="M-133.1,465.6l-5.2-5.3c-0.8-0.8-0.8-2.1,0-2.8l9.3-9c0.8-0.8,2.1-0.8,2.8,0l5.2,5.3c0.8,0.8,0.8,2.1,0,2.8
		l-9.3,9C-131.1,466.4-132.3,466.4-133.1,465.6z"/>
	<line class="st9" x1="-135.8" y1="463.1" x2="-144.6" y2="471.7"/>
	<path class="st10" d="M-172,463.3c0,0-8,13.6,4.5,27.9"/>
	<path class="st11" d="M-129.8,425.7c17.7,0,32,14.3,32,32"/>
	<path class="st11" d="M-129.6,435.6c12.7,0,23,10.3,23,23"/>
</g>
</svg>
