<?xml version="1.0" encoding="utf-8"?>
<!-- Generator: Adobe Illustrator 19.1.0, SVG Export Plug-In . SVG Version: 6.00 Build 0)  -->
<svg version="1.1" id="Layer_1" xmlns="http://www.w3.org/2000/svg" xmlns:xlink="http://www.w3.org/1999/xlink" x="0px" y="0px"
	 viewBox="64 -128 160 320" style="enable-background:new 64 -128 160 320;" xml:space="preserve">
<style type="text/css">
	.st0{fill:#2188C9;}
	.st1{fill:#2188C9;stroke:#2188C9;stroke-width:0.5;stroke-miterlimit:10;}
	.st2{fill:#0c2c63;}
	.st3{fill:#434A54;}
	.st4{fill:#434A54;stroke:#434A54;stroke-width:0.5;stroke-miterlimit:10;}
</style>
<g>
	<g>
		<path class="st0" d="M145.1-25.4h-0.2c-2,0-3.2-0.5-3.7-1.6c-0.2-0.4-0.5-1.4,0.3-2.5l2.7-3.7c0.3-0.4,0.5-0.7,0.6-0.9
			c-4.5-4.7-7-10.9-7-17.4c0-13.8,11.2-25.1,25.1-25.1c13.8,0,25,11.2,25,25.1c0,13.8-11.2,25-25,25c-2.7,0-5.4-0.4-7.9-1.3
			c-0.1,0-0.2,0.1-0.2,0.1c-1,0.5-1.9,0.8-2.8,1.1c-0.3,0.1-0.6,0.2-0.9,0.3l-0.4,0.1C148.9-25.6,147.1-25.4,145.1-25.4z
			 M162.9-72.9c-11.9,0-21.5,9.7-21.5,21.5c0,5.7,2.2,11.1,6.3,15.2l0.2,0.2l0.1,0.3c0.4,0.9,0.5,1.8,0.2,2.7
			c-0.3,0.8-0.7,1.4-1.1,1.9l-1.6,2.1c1.5,0,2.9-0.2,4.1-0.5l0.5-0.1c0.2-0.1,0.5-0.1,0.7-0.2c0.8-0.3,1.6-0.6,2.3-0.9
			c0.4-0.2,1.1-0.4,1.8-0.5l0.6,0l0.3,0.1c2.3,0.8,4.7,1.2,7.1,1.2c11.9,0,21.5-9.6,21.5-21.5C184.4-63.2,174.7-72.9,162.9-72.9z"/>
	</g>
	<path class="st1" d="M163-63.4c0-1.3,0-2.6,0-3.8c0.8,0,1.6,0,2.4,0c0,1.2,0,2.5,0,3.7c1,0.2,1.9,0.3,2.8,0.5
		c0.7,0.2,1.4,0.5,2.1,0.9c0.1,0,0.2,0.2,0.2,0.3c-0.3,0.8-0.6,1.6-0.9,2.4c-0.9-0.6-1.9-0.9-3-1.1c-1.3-0.2-2.5-0.3-3.8,0.1
		c-1.3,0.4-2.1,1.3-2.3,2.6c-0.2,1.3,0.2,2.5,1.3,3.2c1,0.6,2,1.1,3,1.6c1.3,0.6,2.7,1.2,3.9,2c2.2,1.5,3.1,3.7,2.7,6.3
		c-0.3,2.5-1.8,4.2-4.1,5.1c-0.6,0.3-1.3,0.4-2.1,0.7c0,1.3,0,2.6,0,4c-0.9,0-1.7,0-2.6,0c0-1.3,0-2.6,0-3.8
		c-0.9-0.1-1.8-0.2-2.6-0.4c-1.1-0.2-2.1-0.6-3.1-1.2c-0.2-0.1-0.3-0.3-0.2-0.5c0.3-0.7,0.5-1.5,0.8-2.2c0.2,0.1,0.4,0.2,0.6,0.3
		c1.7,0.9,3.4,1.4,5.3,1.3c0.7,0,1.4-0.2,2.1-0.4c2.9-1.2,3.3-4.7,0.8-6.6c-1-0.8-2.1-1.3-3.3-1.7c-1.4-0.6-2.8-1.3-4.1-2.3
		c-2.9-2.4-2.6-6.9,0.3-9.1c0.9-0.7,2-1.2,3.2-1.5C162.6-63.3,162.7-63.4,163-63.4z"/>
	<g>
		<path class="st2" d="M164.2-85.9c0-0.8,0-1.4,0-2.1c0-2.6-0.9-5.1-2.7-7c-1.9-1.9-4.6-3-7.4-3c-4.9,0-9.8,0-14.7,0l-29.4,0
			c-5.9,0-9.9,4-9.9,9.9v67.3c0,4.1,0,8.4,0,12.7v0.1c0,2.8,1,5.3,2.8,7.1c1.9,1.9,4.5,3,7.3,3h0.1c13.5-0.1,27.3-0.1,40.6,0h3.3
			c2.7,0,5.3-1.1,7.2-2.9c1.8-1.8,2.8-4.3,2.8-6.9V-8c0-4.2,0-8.8,0-14.2c-0.4,0-0.8,0-1.3,0c-0.8,0-1.6,0-2.3-0.1
			c0,1.1,0,0.5,0,1.5h-56.8v-60.7h56.8v1c0.8-0.1,1.5-0.1,2.3-0.1c0.4,0,0.9,0,1.3,0v-1.2l0-2.3C164.2-84.7,164.2-85.3,164.2-85.9z
			 M160.6-8L160.6-8c0,1.8-0.6,3.3-1.8,4.4c-1.2,1.2-2.9,1.9-4.7,1.9h-3.9c-13.1,0-26.6-0.1-40,0h-0.1c-1.8,0-3.6-0.7-4.8-1.9
			c-1.1-1.2-1.8-2.7-1.8-4.6v-0.1c0-3.2,0-6.3,0-9.4h56.8C160.5-17.6,160.6-10.9,160.6-8z M160.6-88.1c0,0.7,0,3.5,0,4.1l0-0.7
			h-56.8v-3.4c0-3.9,2.4-6.3,6.3-6.3l29.4,0c4.9,0,9.8,0,14.7,0c1.8,0,3.5,0.7,4.7,1.9c0.8,0.8,1.7,2.1,1.7,4.2L160.6-88.1
			L160.6-88.1L160.6-88.1z"/>
		<rect x="121.4" y="-11.5" class="st2" width="21.5" height="4.7"/>
	</g>
</g>
<g>
	<g>
		<path class="st3" d="M145.1,134.6h-0.2c-2,0-3.2-0.5-3.7-1.6c-0.2-0.4-0.5-1.4,0.3-2.5l2.7-3.7c0.3-0.4,0.5-0.7,0.6-0.9
			c-4.5-4.7-7-10.9-7-17.4c0-13.8,11.2-25.1,25.1-25.1c13.8,0,25,11.2,25,25.1c0,13.8-11.2,25-25,25c-2.7,0-5.4-0.4-7.9-1.3
			c-0.1,0-0.2,0.1-0.2,0.1c-1,0.5-1.9,0.8-2.8,1.1c-0.3,0.1-0.6,0.2-0.9,0.3l-0.4,0.1C148.9,134.4,147.1,134.6,145.1,134.6z
			 M162.9,87.1c-11.9,0-21.5,9.7-21.5,21.5c0,5.7,2.2,11.1,6.3,15.2l0.2,0.2l0.1,0.3c0.4,0.9,0.5,1.8,0.2,2.7
			c-0.3,0.8-0.7,1.4-1.1,1.9l-1.6,2.1c1.5,0,2.9-0.2,4.1-0.5l0.5-0.1c0.2-0.1,0.5-0.1,0.7-0.2c0.8-0.3,1.6-0.6,2.3-0.9
			c0.4-0.2,1.1-0.4,1.8-0.5l0.6,0l0.3,0.1c2.3,0.8,4.7,1.2,7.1,1.2c11.9,0,21.5-9.6,21.5-21.5C184.4,96.8,174.7,87.1,162.9,87.1z"/>
	</g>
	<path class="st4" d="M163,96.6c0-1.3,0-2.6,0-3.8c0.8,0,1.6,0,2.4,0c0,1.2,0,2.5,0,3.7c1,0.2,1.9,0.3,2.8,0.5
		c0.7,0.2,1.4,0.5,2.1,0.9c0.1,0,0.2,0.2,0.2,0.3c-0.3,0.8-0.6,1.6-0.9,2.4c-0.9-0.6-1.9-0.9-3-1.1c-1.3-0.2-2.5-0.3-3.8,0.1
		c-1.3,0.4-2.1,1.3-2.3,2.6c-0.2,1.3,0.2,2.5,1.3,3.2c1,0.6,2,1.1,3,1.6c1.3,0.6,2.7,1.2,3.9,2c2.2,1.5,3.1,3.7,2.7,6.3
		c-0.3,2.5-1.8,4.2-4.1,5.1c-0.6,0.3-1.3,0.4-2.1,0.7c0,1.3,0,2.6,0,4c-0.9,0-1.7,0-2.6,0c0-1.3,0-2.6,0-3.8
		c-0.9-0.1-1.8-0.2-2.6-0.4c-1.1-0.2-2.1-0.6-3.1-1.2c-0.2-0.1-0.3-0.3-0.2-0.5c0.3-0.7,0.5-1.5,0.8-2.2c0.2,0.1,0.4,0.2,0.6,0.3
		c1.7,0.9,3.4,1.4,5.3,1.3c0.7,0,1.4-0.2,2.1-0.4c2.9-1.2,3.3-4.7,0.8-6.6c-1-0.8-2.1-1.3-3.3-1.7c-1.4-0.6-2.8-1.3-4.1-2.3
		c-2.9-2.4-2.6-6.9,0.3-9.1c0.9-0.7,2-1.2,3.2-1.5C162.6,96.7,162.7,96.6,163,96.6z"/>
	<g>
		<path class="st3" d="M164.2,74.1c0-0.8,0-1.4,0-2.1c0-2.6-0.9-5.1-2.7-7c-1.9-1.9-4.6-3-7.4-3c-4.9,0-9.8,0-14.7,0l-29.4,0
			c-5.9,0-9.9,4-9.9,9.9v67.3c0,4.1,0,8.4,0,12.7v0.1c0,2.8,1,5.3,2.8,7.1c1.9,1.9,4.5,3,7.3,3h0.1c13.5-0.1,27.3-0.1,40.6,0h3.3
			c2.7,0,5.3-1.1,7.2-2.9c1.8-1.8,2.8-4.3,2.8-6.9V152c0-4.2,0-8.8,0-14.2c-0.4,0-0.8,0-1.3,0c-0.8,0-1.6,0-2.3-0.1
			c0,1.1,0,0.5,0,1.5h-56.8V78.5h56.8v1c0.8-0.1,1.5-0.1,2.3-0.1c0.4,0,0.9,0,1.3,0v-1.2l0-2.3C164.2,75.3,164.2,74.7,164.2,74.1z
			 M160.6,152L160.6,152c0,1.8-0.6,3.3-1.8,4.4c-1.2,1.2-2.9,1.9-4.7,1.9h-3.9c-13.1,0-26.6-0.1-40,0h-0.1c-1.8,0-3.6-0.7-4.8-1.9
			c-1.1-1.2-1.8-2.7-1.8-4.6v-0.1c0-3.2,0-6.3,0-9.4h56.8C160.5,142.4,160.6,149.1,160.6,152z M160.6,71.9c0,0.7,0,3.5,0,4.1l0-0.7
			h-56.8v-3.4c0-3.9,2.4-6.3,6.3-6.3l29.4,0c4.9,0,9.8,0,14.7,0c1.8,0,3.5,0.7,4.7,1.9c0.8,0.8,1.7,2.1,1.7,4.2L160.6,71.9
			L160.6,71.9L160.6,71.9z"/>
		<rect x="121.4" y="148.5" class="st3" width="21.5" height="4.7"/>
	</g>
</g>
</svg>
